<svg width="206" height="44" viewBox="0 0 206 44" fill="none" xmlns="http://www.w3.org/2000/svg">
<rect x="0.5" width="205" height="44" rx="22" fill="white"/>
<path d="M25.25 16.5781H28.4844C29.9115 16.5781 30.9844 16.7917 31.7031 17.2188C32.4219 17.6458 32.7812 18.3724 32.7812 19.3984C32.7812 19.8411 32.6953 20.2396 32.5234 20.5938C32.3568 20.9427 32.112 21.2318 31.7891 21.4609C31.4661 21.6901 31.0677 21.849 30.5938 21.9375V22.0156C31.0938 22.0938 31.5365 22.237 31.9219 22.4453C32.3073 22.6536 32.6094 22.9453 32.8281 23.3203C33.0469 23.6953 33.1562 24.1719 33.1562 24.75C33.1562 25.4531 32.9922 26.0469 32.6641 26.5312C32.3411 27.0156 31.8828 27.3828 31.2891 27.6328C30.6953 27.8776 29.9922 28 29.1797 28H25.25V16.5781ZM26.5781 21.4766H28.7656C29.7604 21.4766 30.4479 21.3125 30.8281 20.9844C31.2135 20.6562 31.4062 20.1771 31.4062 19.5469C31.4062 18.8958 31.1771 18.4271 30.7188 18.1406C30.2656 17.8542 29.5417 17.7109 28.5469 17.7109H26.5781V21.4766ZM26.5781 22.5938V26.8672H28.9531C29.9688 26.8672 30.6875 26.6693 31.1094 26.2734C31.5312 25.8724 31.7422 25.3333 31.7422 24.6562C31.7422 24.224 31.6458 23.8542 31.4531 23.5469C31.2656 23.2396 30.9583 23.0052 30.5312 22.8438C30.1094 22.6771 29.5443 22.5938 28.8359 22.5938H26.5781ZM38.6016 19.2969C39.6224 19.2969 40.3802 19.526 40.875 19.9844C41.3698 20.4427 41.6172 21.1745 41.6172 22.1797V28H40.6719L40.4219 26.7344H40.3594C40.1198 27.0469 39.8698 27.3099 39.6094 27.5234C39.349 27.7318 39.0469 27.8906 38.7031 28C38.3646 28.1042 37.9479 28.1562 37.4531 28.1562C36.9323 28.1562 36.4688 28.0651 36.0625 27.8828C35.6615 27.7005 35.3438 27.4245 35.1094 27.0547C34.8802 26.6849 34.7656 26.2161 34.7656 25.6484C34.7656 24.7943 35.1042 24.138 35.7812 23.6797C36.4583 23.2214 37.4896 22.9714 38.875 22.9297L40.3516 22.8672V22.3438C40.3516 21.6042 40.1927 21.0859 39.875 20.7891C39.5573 20.4922 39.1094 20.3438 38.5312 20.3438C38.0833 20.3438 37.6562 20.4089 37.25 20.5391C36.8438 20.6693 36.4583 20.8229 36.0938 21L35.6953 20.0156C36.0807 19.8177 36.5234 19.6484 37.0234 19.5078C37.5234 19.3672 38.0495 19.2969 38.6016 19.2969ZM40.3359 23.7812L39.0312 23.8359C37.9635 23.8776 37.2109 24.0521 36.7734 24.3594C36.3359 24.6667 36.1172 25.1016 36.1172 25.6641C36.1172 26.1536 36.2656 26.5156 36.5625 26.75C36.8594 26.9844 37.2526 27.1016 37.7422 27.1016C38.5026 27.1016 39.125 26.8906 39.6094 26.4688C40.0938 26.0469 40.3359 25.4141 40.3359 24.5703V23.7812ZM45.5859 19.4375V28H44.2891V19.4375H45.5859ZM44.9531 16.2344C45.1667 16.2344 45.349 16.3047 45.5 16.4453C45.6562 16.5807 45.7344 16.7943 45.7344 17.0859C45.7344 17.3724 45.6562 17.5859 45.5 17.7266C45.349 17.8672 45.1667 17.9375 44.9531 17.9375C44.7292 17.9375 44.5417 17.8672 44.3906 17.7266C44.2448 17.5859 44.1719 17.3724 44.1719 17.0859C44.1719 16.7943 44.2448 16.5807 44.3906 16.4453C44.5417 16.3047 44.7292 16.2344 44.9531 16.2344ZM50.375 23.6172L47.4141 19.4375H48.8984L51.1562 22.7344L53.4062 19.4375H54.875L51.9141 23.6172L55.0391 28H53.5547L51.1562 24.5078L48.7422 28H47.2734L50.375 23.6172ZM59.9141 19.2969C60.9349 19.2969 61.6927 19.526 62.1875 19.9844C62.6823 20.4427 62.9297 21.1745 62.9297 22.1797V28H61.9844L61.7344 26.7344H61.6719C61.4323 27.0469 61.1823 27.3099 60.9219 27.5234C60.6615 27.7318 60.3594 27.8906 60.0156 28C59.6771 28.1042 59.2604 28.1562 58.7656 28.1562C58.2448 28.1562 57.7812 28.0651 57.375 27.8828C56.974 27.7005 56.6562 27.4245 56.4219 27.0547C56.1927 26.6849 56.0781 26.2161 56.0781 25.6484C56.0781 24.7943 56.4167 24.138 57.0938 23.6797C57.7708 23.2214 58.8021 22.9714 60.1875 22.9297L61.6641 22.8672V22.3438C61.6641 21.6042 61.5052 21.0859 61.1875 20.7891C60.8698 20.4922 60.4219 20.3438 59.8438 20.3438C59.3958 20.3438 58.9688 20.4089 58.5625 20.5391C58.1562 20.6693 57.7708 20.8229 57.4062 21L57.0078 20.0156C57.3932 19.8177 57.8359 19.6484 58.3359 19.5078C58.8359 19.3672 59.362 19.2969 59.9141 19.2969ZM61.6484 23.7812L60.3438 23.8359C59.276 23.8776 58.5234 24.0521 58.0859 24.3594C57.6484 24.6667 57.4297 25.1016 57.4297 25.6641C57.4297 26.1536 57.5781 26.5156 57.875 26.75C58.1719 26.9844 58.5651 27.1016 59.0547 27.1016C59.8151 27.1016 60.4375 26.8906 60.9219 26.4688C61.4062 26.0469 61.6484 25.4141 61.6484 24.5703V23.7812ZM69.4922 19.2812C69.6641 19.2812 69.8438 19.2917 70.0312 19.3125C70.2188 19.3281 70.3854 19.3516 70.5312 19.3828L70.3672 20.5859C70.2266 20.5495 70.0703 20.5208 69.8984 20.5C69.7266 20.4792 69.5651 20.4688 69.4141 20.4688C69.0703 20.4688 68.7448 20.5391 68.4375 20.6797C68.1354 20.8151 67.8698 21.013 67.6406 21.2734C67.4115 21.5286 67.2318 21.8385 67.1016 22.2031C66.9714 22.5625 66.9062 22.9635 66.9062 23.4062V28H65.6016V19.4375H66.6797L66.8203 21.0156H66.875C67.0521 20.6979 67.2656 20.4089 67.5156 20.1484C67.7656 19.8828 68.0547 19.6719 68.3828 19.5156C68.7161 19.3594 69.0859 19.2812 69.4922 19.2812ZM80.3281 19.2812C81.3958 19.2812 82.2474 19.6484 82.8828 20.3828C83.5182 21.1172 83.8359 22.2214 83.8359 23.6953C83.8359 24.6693 83.6901 25.487 83.3984 26.1484C83.1068 26.8099 82.6953 27.3099 82.1641 27.6484C81.638 27.987 81.0156 28.1562 80.2969 28.1562C79.8438 28.1562 79.4453 28.0964 79.1016 27.9766C78.7578 27.8568 78.4635 27.6953 78.2188 27.4922C77.974 27.2891 77.7708 27.0677 77.6094 26.8281H77.5156C77.5312 27.0312 77.5495 27.276 77.5703 27.5625C77.5964 27.849 77.6094 28.099 77.6094 28.3125V31.8281H76.3047V19.4375H77.375L77.5469 20.7031H77.6094C77.776 20.4427 77.9792 20.2057 78.2188 19.9922C78.4583 19.7734 78.75 19.6016 79.0938 19.4766C79.4427 19.3464 79.8542 19.2812 80.3281 19.2812ZM80.1016 20.375C79.5078 20.375 79.0286 20.4896 78.6641 20.7188C78.3047 20.9479 78.0417 21.2917 77.875 21.75C77.7083 22.2031 77.6198 22.7734 77.6094 23.4609V23.7109C77.6094 24.4349 77.6875 25.0469 77.8438 25.5469C78.0052 26.0469 78.2682 26.4271 78.6328 26.6875C79.0026 26.9479 79.4974 27.0781 80.1172 27.0781C80.6484 27.0781 81.0911 26.9349 81.4453 26.6484C81.7995 26.362 82.0625 25.9635 82.2344 25.4531C82.4115 24.9375 82.5 24.3464 82.5 23.6797C82.5 22.6693 82.3021 21.8672 81.9062 21.2734C81.5156 20.6745 80.9141 20.375 80.1016 20.375ZM89.3047 19.2969C90.3255 19.2969 91.0833 19.526 91.5781 19.9844C92.0729 20.4427 92.3203 21.1745 92.3203 22.1797V28H91.375L91.125 26.7344H91.0625C90.8229 27.0469 90.5729 27.3099 90.3125 27.5234C90.0521 27.7318 89.75 27.8906 89.4062 28C89.0677 28.1042 88.651 28.1562 88.1562 28.1562C87.6354 28.1562 87.1719 28.0651 86.7656 27.8828C86.3646 27.7005 86.0469 27.4245 85.8125 27.0547C85.5833 26.6849 85.4688 26.2161 85.4688 25.6484C85.4688 24.7943 85.8073 24.138 86.4844 23.6797C87.1615 23.2214 88.1927 22.9714 89.5781 22.9297L91.0547 22.8672V22.3438C91.0547 21.6042 90.8958 21.0859 90.5781 20.7891C90.2604 20.4922 89.8125 20.3438 89.2344 20.3438C88.7865 20.3438 88.3594 20.4089 87.9531 20.5391C87.5469 20.6693 87.1615 20.8229 86.7969 21L86.3984 20.0156C86.7839 19.8177 87.2266 19.6484 87.7266 19.5078C88.2266 19.3672 88.7526 19.2969 89.3047 19.2969ZM91.0391 23.7812L89.7344 23.8359C88.6667 23.8776 87.9141 24.0521 87.4766 24.3594C87.0391 24.6667 86.8203 25.1016 86.8203 25.6641C86.8203 26.1536 86.9688 26.5156 87.2656 26.75C87.5625 26.9844 87.9557 27.1016 88.4453 27.1016C89.2057 27.1016 89.8281 26.8906 90.3125 26.4688C90.7969 26.0469 91.0391 25.4141 91.0391 24.5703V23.7812ZM98.8828 19.2812C99.0547 19.2812 99.2344 19.2917 99.4219 19.3125C99.6094 19.3281 99.776 19.3516 99.9219 19.3828L99.7578 20.5859C99.6172 20.5495 99.4609 20.5208 99.2891 20.5C99.1172 20.4792 98.9557 20.4688 98.8047 20.4688C98.4609 20.4688 98.1354 20.5391 97.8281 20.6797C97.526 20.8151 97.2604 21.013 97.0312 21.2734C96.8021 21.5286 96.6224 21.8385 96.4922 22.2031C96.362 22.5625 96.2969 22.9635 96.2969 23.4062V28H94.9922V19.4375H96.0703L96.2109 21.0156H96.2656C96.4427 20.6979 96.6562 20.4089 96.9062 20.1484C97.1562 19.8828 97.4453 19.6719 97.7734 19.5156C98.1068 19.3594 98.4766 19.2812 98.8828 19.2812ZM104.742 19.2969C105.763 19.2969 106.521 19.526 107.016 19.9844C107.51 20.4427 107.758 21.1745 107.758 22.1797V28H106.812L106.562 26.7344H106.5C106.26 27.0469 106.01 27.3099 105.75 27.5234C105.49 27.7318 105.188 27.8906 104.844 28C104.505 28.1042 104.089 28.1562 103.594 28.1562C103.073 28.1562 102.609 28.0651 102.203 27.8828C101.802 27.7005 101.484 27.4245 101.25 27.0547C101.021 26.6849 100.906 26.2161 100.906 25.6484C100.906 24.7943 101.245 24.138 101.922 23.6797C102.599 23.2214 103.63 22.9714 105.016 22.9297L106.492 22.8672V22.3438C106.492 21.6042 106.333 21.0859 106.016 20.7891C105.698 20.4922 105.25 20.3438 104.672 20.3438C104.224 20.3438 103.797 20.4089 103.391 20.5391C102.984 20.6693 102.599 20.8229 102.234 21L101.836 20.0156C102.221 19.8177 102.664 19.6484 103.164 19.5078C103.664 19.3672 104.19 19.2969 104.742 19.2969ZM106.477 23.7812L105.172 23.8359C104.104 23.8776 103.352 24.0521 102.914 24.3594C102.477 24.6667 102.258 25.1016 102.258 25.6641C102.258 26.1536 102.406 26.5156 102.703 26.75C103 26.9844 103.393 27.1016 103.883 27.1016C104.643 27.1016 105.266 26.8906 105.75 26.4688C106.234 26.0469 106.477 25.4141 106.477 24.5703V23.7812ZM127.758 16.5781L124.703 28H123.367L121.102 20.3125C121.034 20.0938 120.969 19.875 120.906 19.6562C120.849 19.4323 120.794 19.2214 120.742 19.0234C120.69 18.8203 120.646 18.6432 120.609 18.4922C120.578 18.3359 120.555 18.2188 120.539 18.1406C120.529 18.2188 120.508 18.3333 120.477 18.4844C120.451 18.6354 120.414 18.8099 120.367 19.0078C120.326 19.2057 120.273 19.4167 120.211 19.6406C120.154 19.8646 120.091 20.0911 120.023 20.3203L117.82 28H116.484L113.453 16.5781H114.836L116.672 23.7422C116.734 23.9818 116.792 24.2188 116.844 24.4531C116.901 24.6823 116.951 24.9062 116.992 25.125C117.039 25.3438 117.081 25.5573 117.117 25.7656C117.154 25.974 117.188 26.1771 117.219 26.375C117.245 26.1719 117.279 25.9609 117.32 25.7422C117.362 25.5182 117.406 25.2917 117.453 25.0625C117.505 24.8333 117.56 24.6016 117.617 24.3672C117.68 24.1328 117.745 23.8984 117.812 23.6641L119.867 16.5781H121.234L123.375 23.7188C123.448 23.9635 123.516 24.2057 123.578 24.4453C123.641 24.6849 123.695 24.9193 123.742 25.1484C123.794 25.3724 123.839 25.5885 123.875 25.7969C123.917 26 123.953 26.1927 123.984 26.375C124.021 26.1198 124.065 25.8516 124.117 25.5703C124.169 25.2891 124.229 24.9948 124.297 24.6875C124.37 24.3802 124.448 24.0625 124.531 23.7344L126.367 16.5781H127.758ZM130.664 19.4375V28H129.367V19.4375H130.664ZM130.031 16.2344C130.245 16.2344 130.427 16.3047 130.578 16.4453C130.734 16.5807 130.812 16.7943 130.812 17.0859C130.812 17.3724 130.734 17.5859 130.578 17.7266C130.427 17.8672 130.245 17.9375 130.031 17.9375C129.807 17.9375 129.62 17.8672 129.469 17.7266C129.323 17.5859 129.25 17.3724 129.25 17.0859C129.25 16.7943 129.323 16.5807 129.469 16.4453C129.62 16.3047 129.807 16.2344 130.031 16.2344ZM137.469 19.2812C138.484 19.2812 139.253 19.5312 139.773 20.0312C140.294 20.526 140.555 21.3229 140.555 22.4219V28H139.273V22.5078C139.273 21.7943 139.109 21.2604 138.781 20.9062C138.458 20.5521 137.961 20.375 137.289 20.375C136.341 20.375 135.674 20.6432 135.289 21.1797C134.904 21.7161 134.711 22.4948 134.711 23.5156V28H133.414V19.4375H134.461L134.656 20.6719H134.727C134.909 20.3698 135.141 20.1172 135.422 19.9141C135.703 19.7057 136.018 19.5495 136.367 19.4453C136.716 19.3359 137.083 19.2812 137.469 19.2812ZM146.273 28.1562C145.19 28.1562 144.331 27.7865 143.695 27.0469C143.065 26.3073 142.75 25.2083 142.75 23.75C142.75 22.276 143.073 21.1641 143.719 20.4141C144.365 19.6589 145.224 19.2812 146.297 19.2812C146.75 19.2812 147.146 19.3411 147.484 19.4609C147.823 19.5807 148.115 19.7422 148.359 19.9453C148.604 20.1432 148.81 20.3698 148.977 20.625H149.07C149.049 20.4635 149.029 20.2422 149.008 19.9609C148.987 19.6797 148.977 19.4505 148.977 19.2734V15.8438H150.273V28H149.227L149.031 26.7812H148.977C148.815 27.0365 148.609 27.2682 148.359 27.4766C148.115 27.6849 147.82 27.8516 147.477 27.9766C147.138 28.0964 146.737 28.1562 146.273 28.1562ZM146.477 27.0781C147.393 27.0781 148.042 26.8177 148.422 26.2969C148.802 25.776 148.992 25.0026 148.992 23.9766V23.7422C148.992 22.6536 148.81 21.8177 148.445 21.2344C148.086 20.651 147.43 20.3594 146.477 20.3594C145.68 20.3594 145.083 20.6667 144.688 21.2812C144.292 21.8906 144.094 22.724 144.094 23.7812C144.094 24.8333 144.289 25.6458 144.68 26.2188C145.076 26.7917 145.674 27.0781 146.477 27.0781ZM160.406 23.7031C160.406 24.4062 160.315 25.0339 160.133 25.5859C159.951 26.138 159.688 26.6042 159.344 26.9844C159 27.3646 158.583 27.6562 158.094 27.8594C157.609 28.0573 157.06 28.1562 156.445 28.1562C155.872 28.1562 155.346 28.0573 154.867 27.8594C154.393 27.6562 153.982 27.3646 153.633 26.9844C153.289 26.6042 153.021 26.138 152.828 25.5859C152.641 25.0339 152.547 24.4062 152.547 23.7031C152.547 22.7656 152.706 21.9688 153.023 21.3125C153.341 20.651 153.794 20.1484 154.383 19.8047C154.977 19.4557 155.682 19.2812 156.5 19.2812C157.281 19.2812 157.964 19.4557 158.547 19.8047C159.135 20.1536 159.591 20.6589 159.914 21.3203C160.242 21.9766 160.406 22.7708 160.406 23.7031ZM153.891 23.7031C153.891 24.3906 153.982 24.987 154.164 25.4922C154.346 25.9974 154.628 26.388 155.008 26.6641C155.388 26.9401 155.878 27.0781 156.477 27.0781C157.07 27.0781 157.557 26.9401 157.938 26.6641C158.323 26.388 158.607 25.9974 158.789 25.4922C158.971 24.987 159.062 24.3906 159.062 23.7031C159.062 23.0208 158.971 22.4323 158.789 21.9375C158.607 21.4375 158.326 21.0521 157.945 20.7812C157.565 20.5104 157.073 20.375 156.469 20.375C155.578 20.375 154.924 20.6693 154.508 21.2578C154.096 21.8464 153.891 22.6615 153.891 23.7031ZM169.617 27.9844L168.094 23C168.026 22.7865 167.961 22.5781 167.898 22.375C167.841 22.1667 167.786 21.9688 167.734 21.7812C167.688 21.5885 167.643 21.4115 167.602 21.25C167.565 21.0833 167.534 20.9401 167.508 20.8203H167.453C167.432 20.9401 167.404 21.0833 167.367 21.25C167.331 21.4115 167.286 21.5885 167.234 21.7812C167.188 21.974 167.135 22.1771 167.078 22.3906C167.021 22.599 166.956 22.8099 166.883 23.0234L165.289 27.9844H163.828L161.469 19.4219H162.812L164.047 24.1484C164.13 24.4609 164.208 24.7708 164.281 25.0781C164.359 25.3802 164.424 25.6667 164.477 25.9375C164.534 26.2031 164.576 26.4349 164.602 26.6328H164.664C164.695 26.5026 164.729 26.3464 164.766 26.1641C164.807 25.9818 164.852 25.7891 164.898 25.5859C164.951 25.3776 165.005 25.1719 165.062 24.9688C165.12 24.7604 165.177 24.5651 165.234 24.3828L166.812 19.4219H168.211L169.734 24.375C169.812 24.625 169.888 24.8854 169.961 25.1562C170.039 25.4271 170.109 25.6901 170.172 25.9453C170.234 26.1953 170.279 26.4193 170.305 26.6172H170.367C170.388 26.4401 170.427 26.2214 170.484 25.9609C170.542 25.7005 170.607 25.4141 170.68 25.1016C170.758 24.7891 170.839 24.4714 170.922 24.1484L172.172 19.4219H173.492L171.125 27.9844H169.617ZM180.594 25.6562C180.594 26.2031 180.456 26.6641 180.18 27.0391C179.909 27.4089 179.518 27.6875 179.008 27.875C178.503 28.0625 177.898 28.1562 177.195 28.1562C176.596 28.1562 176.078 28.1094 175.641 28.0156C175.203 27.9219 174.82 27.7891 174.492 27.6172V26.4219C174.841 26.5938 175.258 26.75 175.742 26.8906C176.227 27.0312 176.721 27.1016 177.227 27.1016C177.966 27.1016 178.503 26.9818 178.836 26.7422C179.169 26.5026 179.336 26.1771 179.336 25.7656C179.336 25.5312 179.268 25.3255 179.133 25.1484C179.003 24.9661 178.781 24.7917 178.469 24.625C178.156 24.4531 177.724 24.2656 177.172 24.0625C176.625 23.8542 176.151 23.6484 175.75 23.4453C175.354 23.237 175.047 22.9844 174.828 22.6875C174.615 22.3906 174.508 22.0052 174.508 21.5312C174.508 20.8073 174.799 20.2526 175.383 19.8672C175.971 19.4766 176.742 19.2812 177.695 19.2812C178.211 19.2812 178.693 19.3333 179.141 19.4375C179.594 19.5365 180.016 19.6719 180.406 19.8438L179.969 20.8828C179.615 20.7318 179.237 20.6042 178.836 20.5C178.435 20.3958 178.026 20.3438 177.609 20.3438C177.01 20.3438 176.549 20.4427 176.227 20.6406C175.909 20.8385 175.75 21.1094 175.75 21.4531C175.75 21.7188 175.823 21.9375 175.969 22.1094C176.12 22.2812 176.359 22.4427 176.688 22.5938C177.016 22.7448 177.448 22.9219 177.984 23.125C178.521 23.3229 178.984 23.5286 179.375 23.7422C179.766 23.9505 180.065 24.2057 180.273 24.5078C180.487 24.8047 180.594 25.1875 180.594 25.6562Z" fill="#23272A"/>
</svg>
